<?xml version="1.0" encoding="UTF-8"?>
<svg version="1.1" xmlns="http://www.w3.org/2000/svg" width="512" height="512">
<path d="M0 0 C1.1843016 -0.00507454 2.36860321 -0.01014909 3.58879274 -0.0153774 C5.54239799 -0.01612404 5.54239799 -0.01612404 7.53547001 -0.01688576 C8.93209059 -0.02090151 10.32871001 -0.02533992 11.72532803 -0.03016531 C15.56772692 -0.04212447 19.41011326 -0.04777776 23.25252712 -0.05234647 C27.39522014 -0.05830519 31.53789818 -0.06991449 35.68058109 -0.08063698 C45.68869904 -0.10515678 55.69682194 -0.11978854 65.70496067 -0.13269705 C68.5325295 -0.13640961 71.36009784 -0.1403828 74.18766618 -0.14444971 C91.75199536 -0.16968944 109.31632533 -0.19173941 126.88066864 -0.20417786 C130.94895715 -0.20710749 135.01724564 -0.21006916 139.0855341 -0.21308327 C140.09667108 -0.21382932 141.10780806 -0.21457537 142.14958555 -0.21534403 C158.52031362 -0.22799091 174.8909329 -0.26120505 191.26161014 -0.3028851 C208.07525478 -0.34534136 224.8888438 -0.36887725 241.70254189 -0.37409842 C251.14022627 -0.3775086 260.57774073 -0.38921717 270.01537228 -0.42220116 C278.05512793 -0.45025373 286.09467884 -0.46117825 294.13447963 -0.4500057 C298.23339597 -0.44483211 302.33188389 -0.44762043 306.4307375 -0.47247124 C310.19094056 -0.4950775 313.95041031 -0.49413701 317.71062721 -0.47526737 C319.69910318 -0.47117463 321.68758441 -0.49152882 323.67594808 -0.51305425 C337.48649879 -0.39216686 347.97112968 4.31797268 357.90609074 13.71904564 C365.46082267 21.72160962 369.38992602 31.64924155 369.37123013 42.49577045 C369.37388195 43.24275225 369.37653378 43.98973404 369.37926596 44.75935164 C369.38695962 47.2764414 369.38751816 49.79348238 369.38811588 52.31058311 C369.39213047 54.12793305 369.39656869 55.94528209 369.40139544 57.76263005 C369.41336738 62.76798965 369.41901084 67.77333961 369.42357659 72.77871072 C369.4295304 78.17294725 369.44114087 83.56717224 369.4518671 88.96140099 C369.47639725 101.99513136 369.49101972 115.02886555 369.50392717 128.06261191 C369.50763883 131.7438236 369.51161209 135.42503492 369.51567984 139.10624623 C369.54091747 161.96446466 369.56297134 184.82268368 369.57540798 207.68091297 C369.5783377 212.97642011 369.58129936 218.27192722 369.58431339 223.56743431 C369.58505944 224.883614 369.58580549 226.19979369 369.58657415 227.55585761 C369.59922564 248.87347051 369.63244547 270.19098305 369.67411523 291.50856041 C369.71654374 313.39370054 369.74010414 335.27879796 369.74532855 357.16397911 C369.74874175 369.45210529 369.76048626 381.7401011 369.79343128 394.0281868 C369.82144556 404.49436437 369.83242502 414.96038484 369.82123582 425.42659699 C369.81605266 430.7649383 369.81891405 436.10295069 369.84370136 441.44124413 C369.86622913 446.33385097 369.8654264 451.22589328 369.84649749 456.11851025 C369.84370244 457.88308645 369.84926835 459.64770122 369.86431043 461.41221552 C369.99053117 477.19062899 366.76376715 489.06627858 355.65218449 500.80888939 C348.28620179 507.76266381 338.57596037 512.25103 328.46843147 512.27402878 C327.28412987 512.27910332 326.09982826 512.28417786 324.87963873 512.28940618 C322.92603348 512.29015282 322.92603348 512.29015282 320.93296146 512.29091454 C319.53634088 512.29493029 318.13972146 512.2993687 316.74310344 512.30419409 C312.90070455 512.31615324 309.05831821 512.32180653 305.21590436 512.32637525 C301.07321133 512.33233397 296.93053329 512.34394327 292.78785038 512.35466576 C282.77973244 512.37918556 272.77160953 512.39381732 262.7634708 512.40672582 C259.93590197 512.41043839 257.10833363 512.41441158 254.2807653 512.41847849 C236.71643612 512.44371822 219.15210615 512.46576819 201.58776283 512.47820663 C197.51947432 512.48113627 193.45118583 512.48409794 189.38289738 512.48711205 C188.3717604 512.4878581 187.36062342 512.48860415 186.31884592 512.4893728 C169.94811786 512.50201969 153.57749857 512.53523383 137.20682133 512.57691388 C120.39317669 512.61937014 103.57958768 512.64290603 86.76588959 512.6481272 C77.32820521 512.65153738 67.89069074 512.66324595 58.4530592 512.69622993 C50.41330354 512.72428251 42.37375263 512.73520703 34.33395184 512.72403447 C30.23503551 512.71886089 26.13654759 512.7216492 22.03769398 512.74650002 C18.27749091 512.76910628 14.51802116 512.76816579 10.75780427 512.74929614 C8.76932829 512.74520341 6.78084706 512.7655576 4.79248339 512.78708303 C-9.01806732 512.66619564 -19.50269821 507.9560561 -29.43765926 498.55498314 C-36.99239119 490.55241916 -40.92149455 480.62478723 -40.90279865 469.77825832 C-40.90545048 469.03127653 -40.90810231 468.28429474 -40.91083449 467.51467714 C-40.91852815 464.99758738 -40.91908669 462.4805464 -40.91968441 459.96344566 C-40.923699 458.14609573 -40.92813722 456.32874669 -40.93296397 454.51139873 C-40.94493591 449.50603913 -40.95057937 444.50068917 -40.95514512 439.49531806 C-40.96109893 434.10108153 -40.9727094 428.70685654 -40.98343563 423.31262779 C-41.00796578 410.27889742 -41.02258824 397.24516323 -41.0354957 384.21141687 C-41.03920736 380.53020518 -41.04318062 376.84899386 -41.04724836 373.16778255 C-41.072486 350.30956412 -41.09453986 327.45134509 -41.10697651 304.59311581 C-41.10990623 299.29760867 -41.11286789 294.00210156 -41.11588192 288.70659447 C-41.117001 286.73232494 -41.117001 286.73232494 -41.11814268 284.71817117 C-41.13079417 263.40055827 -41.164014 242.08304573 -41.20568375 220.76546837 C-41.24811227 198.88032824 -41.27167266 176.99523081 -41.27689707 155.11004966 C-41.28031027 142.82192348 -41.29205479 130.53392768 -41.32499981 118.24584198 C-41.35301408 107.77966441 -41.36399355 97.31364394 -41.35280435 86.84743179 C-41.34762119 81.50909048 -41.35048258 76.17107809 -41.37526989 70.83278465 C-41.39779766 65.94017781 -41.39699493 61.0481355 -41.37806602 56.15551852 C-41.37527096 54.39094232 -41.38083688 52.62632755 -41.39587896 50.86181325 C-41.52209969 35.08339979 -38.29533568 23.2077502 -27.18375301 11.46513939 C-19.81777031 4.51136497 -10.10752889 0.02299878 0 0 Z M-5.57828426 34.57451439 C-10.7360612 40.61648165 -10.91589476 45.51156911 -10.88603878 53.21716881 C-10.8868948 54.02395576 -10.88775082 54.83074272 -10.88863277 55.66197777 C-10.89028649 58.37088296 -10.88476669 61.07972618 -10.87930965 63.78862572 C-10.8790033 65.76165928 -10.87913684 67.73469296 -10.87967491 69.70772648 C-10.87990073 74.99277666 -10.87410362 80.27780421 -10.86706448 85.56284904 C-10.8613708 90.5216129 -10.86110142 95.48037123 -10.86038876 100.43913841 C-10.85514082 114.94260007 -10.84117967 129.44605751 -10.82828426 143.94951439 C-10.80765926 176.35138939 -10.78703426 208.75326439 -10.76578426 242.13701439 C104.73421574 242.13701439 220.23421574 242.13701439 339.23421574 242.13701439 C339.27546574 209.77638939 339.31671574 177.41576439 339.35921574 144.07451439 C339.37742374 133.85345726 339.39563175 123.63240013 339.41439152 113.101614 C339.42108005 103.94610472 339.42108005 103.94610472 339.42510319 94.7905941 C339.42696781 90.7100463 339.43446812 86.62955044 339.44536686 82.54901695 C339.45908572 77.34365944 339.46319787 72.13837746 339.46036029 66.93300354 C339.46095364 65.0228782 339.46491909 63.11275022 339.472646 61.20264041 C339.4826045 58.62089089 339.48019176 56.0394342 339.47472477 53.45767784 C339.48346276 52.33881109 339.48346276 52.33881109 339.49237728 51.19734097 C339.45767839 45.09386377 338.86613841 40.02000208 334.79671574 35.32451439 C329.47802061 30.78416489 325.48325069 30.01336743 318.64097118 30.00837994 C317.52064625 30.00515549 316.40032131 30.00193104 315.24604714 29.99860889 C314.02028273 30.00015749 312.79451832 30.00170609 311.53160954 30.00330162 C310.22553962 30.00103606 308.9194697 29.99877051 307.5738219 29.9964363 C303.95012299 29.99031821 300.32644715 29.9904519 296.70274425 29.99163067 C292.79400098 29.99183468 288.88526512 29.98631598 284.97652531 29.9815731 C277.31933551 29.97326608 269.66215341 29.97051825 262.00495948 29.96996073 C255.78135753 29.96948562 249.55775813 29.96743112 243.33415699 29.9642601 C225.691147 29.95545359 208.04814309 29.95084075 190.40513088 29.95159058 C188.97837212 29.95165051 188.97837212 29.95165051 187.52278996 29.95171165 C186.57045691 29.95175254 185.61812386 29.95179342 184.63693224 29.95183554 C169.19990341 29.95224207 153.76289897 29.94267078 138.3258772 29.92857329 C122.47725945 29.91421404 106.6286536 29.90730285 90.78002918 29.90816706 C81.88140736 29.90849918 72.9828111 29.90574579 64.08419514 29.89498901 C56.50839414 29.88588998 48.9326303 29.88370387 41.3568262 29.89049844 C37.49168966 29.89376659 33.62662443 29.89380969 29.76149464 29.88514519 C25.57120534 29.87584837 21.38108166 29.88204847 17.19078922 29.88977623 C15.35883477 29.88206089 15.35883477 29.88206089 13.48987114 29.87418967 C3.19071855 29.78269955 3.19071855 29.78269955 -5.57828426 34.57451439 Z M-10.76578426 272.13701439 C-10.80703426 304.16763939 -10.84828426 336.19826439 -10.89078426 369.19951439 C-10.90899227 379.31615746 -10.92720028 389.43280052 -10.94596004 399.85600853 C-10.95264859 408.91837815 -10.95264859 408.91837815 -10.95667171 417.98074913 C-10.95853625 422.0196305 -10.96603625 426.05845937 -10.97693539 430.09732628 C-10.99065507 435.24966034 -10.99476625 440.40191809 -10.99192882 445.55426872 C-10.99252213 447.4448565 -10.9964871 449.33544695 -11.00421453 451.22601902 C-11.01417432 453.7815352 -11.01175983 456.33675559 -11.0062933 458.89227867 C-11.01503129 459.99947588 -11.01503129 459.99947588 -11.02394581 461.12904072 C-10.98901157 467.21277311 -10.38335766 472.27058355 -6.32828426 476.94951439 C-1.00958914 481.48986389 2.98518078 482.26066134 9.82746029 482.26564884 C10.94778522 482.26887329 12.06811016 482.27209773 13.22238433 482.27541989 C14.44814874 482.27387129 15.67391315 482.27232269 16.93682194 482.27072716 C18.89592682 482.27412549 18.89592682 482.27412549 20.89460957 482.27759248 C24.51830848 482.28371057 28.14198433 482.28357688 31.76568723 482.2823981 C35.67443049 482.2821941 39.58316635 482.2877128 43.49190617 482.29245567 C51.14909597 482.3007627 58.80627807 482.30351053 66.46347199 482.30406805 C72.68707394 482.30454316 78.91067334 482.30659766 85.13427448 482.30976868 C102.77728448 482.31857519 120.42028839 482.32318803 138.06330059 482.3224382 C139.0144731 482.32239825 139.9656456 482.32235829 140.94564152 482.32231712 C141.89797456 482.32227624 142.85030761 482.32223536 143.83149923 482.32219324 C159.26852806 482.32178671 174.7055325 482.331358 190.14255427 482.34545549 C205.99117202 482.35981474 221.83977787 482.36672593 237.6884023 482.36586171 C246.58702412 482.3655296 255.48562037 482.36828299 264.38423634 482.37903976 C271.96003734 482.38813879 279.53580118 482.39032491 287.11160527 482.38353034 C290.97674182 482.38026219 294.84180705 482.38021909 298.70693684 482.38888359 C302.89722613 482.39818041 307.08734982 482.39198031 311.27764225 482.38425255 C312.49894522 482.38939611 313.72024818 482.39453967 314.97856033 482.3998391 C325.27771292 482.49132923 325.27771292 482.49132923 334.04671574 477.69951439 C339.18581147 471.67943082 339.38453019 466.81073786 339.35447025 459.1327877 C339.35532627 458.33414803 339.35618229 457.53550835 339.35706425 456.71266747 C339.35871782 454.03142113 339.35319841 451.35023743 339.34774113 448.66899681 C339.34743477 446.71598786 339.34756832 444.7629788 339.34810638 442.8099699 C339.34833219 437.57878824 339.34253528 432.34762944 339.33549595 427.11645317 C339.32980206 422.20814504 339.32953288 417.29984248 339.32882023 412.39153099 C339.32357239 398.03585576 339.30961125 383.68018479 339.29671574 369.32451439 C339.27609074 337.25263939 339.25546574 305.18076439 339.23421574 272.13701439 C223.73421574 272.13701439 108.23421574 272.13701439 -10.76578426 272.13701439 Z " fill="#000000" transform="translate(91.76578426361084,-0.13701438903808594)"/>
<path d="M0 0 C1.11076497 -0.00538554 2.22152994 -0.01077108 3.36595446 -0.01631981 C7.09544581 -0.03065032 10.82458478 -0.0234829 14.55409241 -0.01637268 C17.22487516 -0.02207357 19.89563243 -0.02893586 22.56640625 -0.03717041 C29.07224997 -0.05436947 35.57799715 -0.05519615 42.08385771 -0.04995751 C47.37164552 -0.04591665 52.65940479 -0.04735835 57.94719124 -0.05270576 C58.69967971 -0.05345419 59.45216818 -0.05420261 60.22745933 -0.05497371 C61.75612128 -0.05650518 63.28478322 -0.05804353 64.81344516 -0.05958868 C79.15002514 -0.07331771 93.48655056 -0.06787319 107.8231293 -0.05640347 C120.93939449 -0.04647049 134.05551862 -0.0594121 147.17176204 -0.08333766 C160.63945179 -0.10771921 174.10707582 -0.11733887 187.5747872 -0.11068493 C195.13592827 -0.10719062 202.69696085 -0.10943868 210.25808525 -0.12693596 C216.69467677 -0.14164617 223.13108339 -0.14230898 229.56767123 -0.12486505 C232.8515411 -0.11634274 236.13501191 -0.11639668 239.41887665 -0.1295166 C242.97919083 -0.14265673 246.5386021 -0.13123961 250.09887695 -0.11352539 C251.65505239 -0.1279329 251.65505239 -0.1279329 253.24266571 -0.14263147 C259.18527592 -0.08164677 262.58255343 0.43546495 267.1129303 4.38768005 C271.16923428 9.61027863 270.88690573 15.04108148 270.1129303 21.38768005 C267.94285437 25.96895146 265.70098404 28.31440166 261.1129303 30.38768005 C257.484984 30.83470661 253.87736587 30.79646823 250.2258606 30.77536011 C248.55971314 30.78343841 248.55971314 30.78343841 246.85990614 30.79167992 C243.13041478 30.80601042 239.40127582 30.79884301 235.67176819 30.79173279 C233.00098543 30.79743368 230.33022816 30.80429596 227.65945435 30.81253052 C221.15361063 30.82972958 214.64786344 30.83055626 208.14200289 30.82531761 C202.85421508 30.82127676 197.5664558 30.82271846 192.27866936 30.82806587 C191.14993665 30.82918851 191.14993665 30.82918851 189.99840127 30.83033382 C188.46973932 30.83186529 186.94107737 30.83340364 185.41241544 30.83494879 C171.07583545 30.84867782 156.73931003 30.8432333 142.40273129 30.83176357 C129.28646611 30.8218306 116.17034198 30.83477221 103.05409855 30.85869776 C89.5864088 30.88307932 76.11878478 30.89269898 62.6510734 30.88604504 C55.08993232 30.88255073 47.52889974 30.88479878 39.96777534 30.90229607 C33.53118383 30.91700628 27.09477721 30.91766908 20.65818936 30.90022516 C17.37431949 30.89170284 14.09084869 30.89175679 10.80698395 30.90487671 C7.24666976 30.91801684 3.6872585 30.90659972 0.12698364 30.8888855 C-1.42919179 30.90329301 -1.42919179 30.90329301 -3.01680511 30.91799158 C-8.95941533 30.85700687 -12.35669283 30.33989516 -16.8870697 26.38768005 C-20.94337368 21.16508148 -20.66104514 15.73427863 -19.8870697 9.38768005 C-15.54874499 0.22899456 -9.15564632 -0.0529257 0 0 Z " fill="#000000" transform="translate(130.88706970214844,361.61231994628906)"/>
<path d="M0 0 C7.50204088 5.00136059 9.70786926 12.0811372 12.60159302 20.25424194 C13.68406151 23.30995274 14.79476786 26.35518443 15.90367126 29.40138245 C16.51994276 31.094621 17.13485935 32.78835319 17.74855042 34.48252869 C21.58768914 45.06251643 25.58299805 55.583481 29.56845093 66.10900879 C30.87241594 69.55566978 32.17275891 73.00367552 33.47192383 76.45214844 C38.61593857 90.10586251 38.61593857 90.10586251 43.84275818 103.72801208 C44.99660827 106.70825024 46.14180366 109.69177343 47.28610229 112.6756897 C48.03542843 114.61735186 48.79873337 116.55309426 49.56274414 118.48901367 C51.87701425 124.53317747 53.5842957 129.38592161 52.8125 135.875 C50.59113437 140.23545847 48.37682971 143.00777421 43.8125 144.875 C39.12504218 145.39582865 36.83748782 145.3480713 32.5625 143.375 C25.3302759 136.80025082 23.04967298 125.50746127 19.8125 116.875 C1.6625 116.545 -16.4875 116.215 -35.1875 115.875 C-35.5175 117.525 -35.8475 119.175 -36.1875 120.875 C-37.15031955 123.92045521 -38.29921772 126.89124729 -39.4375 129.875 C-39.86869141 131.06609375 -39.86869141 131.06609375 -40.30859375 132.28125 C-42.16948722 137.15695341 -44.04165828 140.4949507 -48.1875 143.875 C-53.05014191 145.49588064 -57.30800077 145.60763309 -61.9375 143.3125 C-65.75310873 140.84053678 -67.10689689 138.34149286 -68.1875 133.875 C-67.5038104 127.29924622 -65.39460829 121.11476972 -63.01171875 114.98828125 C-62.69418137 114.15276733 -62.37664398 113.31725342 -62.04948425 112.4564209 C-60.99875932 109.69720951 -59.93694145 106.94241175 -58.875 104.1875 C-58.12640308 102.22838095 -57.37853621 100.2689828 -56.63134766 98.30932617 C-55.02106188 94.08997538 -53.40602946 89.87248273 -51.78759766 85.65625 C-49.05924295 78.54600015 -46.34726746 71.42955315 -43.63671875 64.3125 C-40.89578795 57.11891263 -38.15416743 49.92558983 -35.40893555 42.73364258 C-34.98503036 41.62292892 -34.56112518 40.51221527 -34.12437439 39.36784363 C-33.29621652 37.2033513 -32.46528054 35.03991956 -31.63136292 32.87763977 C-29.78773282 28.09522186 -27.9727815 23.30997858 -26.26269531 18.47802734 C-25.81375412 17.24109383 -25.81375412 17.24109383 -25.35574341 15.97917175 C-24.81597727 14.48803987 -24.29177523 12.99111389 -23.7885437 11.48725891 C-21.85264753 6.21757891 -18.85950481 2.9868169 -14.1875 -0.125 C-9.20670617 -1.78526461 -4.88476371 -1.72403425 0 0 Z M-8.1875 44.875 C-10.4731386 50.79883921 -12.75100042 56.72562515 -15.0234375 62.65454102 C-15.7976827 64.67183299 -16.57371663 66.68843937 -17.3515625 68.7043457 C-18.46823704 71.59929596 -19.57849066 74.49663739 -20.6875 77.39453125 C-21.03748047 78.29774612 -21.38746094 79.200961 -21.74804688 80.13154602 C-22.06837891 80.97219101 -22.38871094 81.812836 -22.71875 82.67895508 C-23.00298828 83.41841873 -23.28722656 84.15788239 -23.58007812 84.91975403 C-24.33583802 87.01125163 -24.33583802 87.01125163 -24.1875 89.875 C-12.9675 89.875 -1.7475 89.875 9.8125 89.875 C7.93880776 83.62935918 6.05918413 77.56470154 3.74609375 71.49609375 C3.46653336 70.75794937 3.18697296 70.01980499 2.89894104 69.2592926 C2.3151021 67.7218776 1.72939345 66.18517137 1.1418457 64.64916992 C0.24109352 62.28916468 -0.64814753 59.92501465 -1.53710938 57.56054688 C-2.10868233 56.05963187 -2.6809231 54.55897097 -3.25390625 53.05859375 C-3.51853165 52.35141708 -3.78315704 51.64424042 -4.05580139 50.91563416 C-5.27954237 47.20282687 -5.27954237 47.20282687 -8.1875 44.875 Z " fill="#000000" transform="translate(201.1875,64.125)"/>
<path d="M0 0 C4.02820527 2.65567968 5.0566056 5.95762346 6.25 10.5 C6.62617543 13.28114711 6.66165348 16.004935 6.63818359 18.80859375 C6.64344055 19.59670441 6.64869751 20.38481506 6.65411377 21.19680786 C6.66721467 23.77724592 6.65861126 26.35705671 6.6484375 28.9375 C6.65046109 30.74536252 6.6533749 32.55322424 6.65713501 34.36108398 C6.66154494 38.14021619 6.65517033 41.9191349 6.64111328 45.69824219 C6.6240222 50.52667742 6.63387053 55.35461227 6.65183067 60.18302917 C6.66270457 63.91324591 6.65920567 67.64334528 6.6514473 71.37356567 C6.64945525 73.15324972 6.65186935 74.93294464 6.65888596 76.71261597 C6.66656011 79.20583058 6.65481377 81.69825038 6.63818359 84.19140625 C6.64425629 84.91683624 6.65032898 85.64226624 6.65658569 86.38967896 C6.59476001 91.42810404 5.75301933 96.06218082 3.25 100.5 C-0.09227311 103.4450867 -2.95710316 104.40430555 -7.375 104.9375 C-13.98354592 104.08083664 -16.856559 100.50585272 -20.75 95.5 C-21.49121094 95.78875 -22.23242188 96.0775 -22.99609375 96.375 C-36.56333015 101.15757538 -50.40962921 101.39880341 -63.75 95.5 C-66.96242436 93.73147075 -69.85581788 91.74579102 -72.75 89.5 C-73.78125 88.7575 -74.8125 88.015 -75.875 87.25 C-84.74681465 78.76391643 -90.16379664 67.63124462 -90.953125 55.3359375 C-91.14664124 41.04798851 -87.70957912 28.04151334 -77.7578125 17.37890625 C-66.23079127 6.59194669 -53.89403296 3.01310206 -38.48046875 3.19921875 C-32.17673355 3.44800004 -26.61070613 5.1805686 -20.75 7.5 C-20.27949219 6.93410156 -19.80898438 6.36820312 -19.32421875 5.78515625 C-18.70160156 5.05167969 -18.07898438 4.31820312 -17.4375 3.5625 C-16.82261719 2.83160156 -16.20773437 2.10070312 -15.57421875 1.34765625 C-11.38579324 -2.894582 -5.10277546 -2.45408905 0 0 Z M-59.625 37.375 C-63.7088415 42.41700932 -65.21762643 46.8504792 -64.9921875 53.42578125 C-64.22038373 60.03590711 -61.51311908 64.56302884 -56.625 69.0234375 C-51.27504606 73.23652623 -46.08708267 74.06159587 -39.4609375 73.84375 C-32.79984604 72.99911592 -28.09462108 69.71739013 -24.0078125 64.48046875 C-20.46104864 58.89596789 -19.03590062 53.2521636 -20.12109375 46.6953125 C-22.26164382 39.22333028 -27.22439966 34.44539435 -33.75 30.5 C-43.85320778 27.13226407 -52.55774487 29.78424449 -59.625 37.375 Z " fill="#000000" transform="translate(362.75,104.5)"/>
<path d="M0 0 C1.29862774 -0.00807831 1.29862774 -0.00807831 2.62349039 -0.01631981 C5.52384226 -0.0306248 8.42373936 -0.02348938 11.32411194 -0.01637268 C13.40376147 -0.02207491 15.48340787 -0.0290386 17.56304932 -0.03717041 C23.21178131 -0.05513304 28.86035822 -0.05392759 34.50911021 -0.04822803 C39.22347465 -0.0451407 43.93780911 -0.05122354 48.65216929 -0.05726677 C59.77298537 -0.07132056 70.89372464 -0.06974356 82.01454163 -0.05836487 C93.49067091 -0.04688217 104.96656655 -0.06096005 116.44266504 -0.08776134 C126.29332563 -0.109906 136.14391282 -0.11655851 145.99459654 -0.11068493 C151.87901215 -0.10731129 157.76327796 -0.10975759 163.64767265 -0.12693596 C169.18072761 -0.14238327 174.71343597 -0.13847394 180.24647713 -0.11963081 C182.2773952 -0.11593884 184.30833883 -0.11907104 186.3392334 -0.1295166 C189.11140395 -0.14268644 191.88242031 -0.13121455 194.65454102 -0.11352539 C195.45853441 -0.1231304 196.2625278 -0.1327354 197.09088463 -0.14263147 C202.30390192 -0.07417283 205.2396247 0.96695298 209.39076233 4.38768005 C213.44706631 9.61027863 213.16473777 15.04108148 212.39076233 21.38768005 C210.21649835 25.9777929 207.9403017 28.23065532 203.39076233 30.38768005 C200.44863932 30.67390033 197.72128262 30.79727471 194.78152466 30.77536011 C193.48289691 30.78343841 193.48289691 30.78343841 192.15803427 30.79167992 C189.2576824 30.80598491 186.3577853 30.79884949 183.45741272 30.79173279 C181.37776319 30.79743502 179.29811679 30.8043987 177.21847534 30.81253052 C171.56974335 30.83049314 165.92116644 30.82928769 160.27241445 30.82358813 C155.55805001 30.82050081 150.84371555 30.82658364 146.12935537 30.83262688 C135.00853929 30.84668067 123.88780002 30.84510366 112.76698303 30.83372498 C101.29085375 30.82224228 89.81495811 30.83632015 78.33885962 30.86312145 C68.48819902 30.88526611 58.63761184 30.89191862 48.78692812 30.88604504 C42.90251251 30.88267139 37.0182467 30.8851177 31.13385201 30.90229607 C25.60079705 30.91774338 20.06808869 30.91383404 14.53504753 30.89499092 C12.50412946 30.89129895 10.47318583 30.89443115 8.44229126 30.90487671 C5.67012071 30.91804655 2.89910435 30.90657466 0.12698364 30.8888855 C-0.67700975 30.8984905 -1.48100314 30.90809551 -2.30935997 30.91799158 C-7.52237726 30.84953293 -10.45810004 29.80840713 -14.60923767 26.38768005 C-18.66554165 21.16508148 -18.38321311 15.73427863 -17.60923767 9.38768005 C-13.79865193 1.34311017 -8.40643663 -0.06266628 0 0 Z " fill="#000000" transform="translate(128.60923767089844,421.61231994628906)"/>
<path d="M0 0 C1.1088707 -0.00990463 2.21774139 -0.01980927 3.36021423 -0.03001404 C5.17055649 -0.02326157 5.17055649 -0.02326157 7.01747131 -0.01637268 C8.296035 -0.02323593 9.57459869 -0.03009918 10.89190674 -0.03717041 C14.39197481 -0.05509243 17.89179204 -0.0539353 21.39189219 -0.04822803 C24.31682719 -0.04513467 27.2417141 -0.05123027 30.16664225 -0.05726677 C37.06845679 -0.07130732 43.97014753 -0.06975476 50.8719635 -0.05836487 C57.98562094 -0.0468846 65.09890134 -0.06095856 72.2125091 -0.08776134 C78.32648047 -0.1099328 84.44033362 -0.11655248 90.55434233 -0.11068493 C94.2031387 -0.1073175 97.8516934 -0.10971587 101.50045586 -0.12693596 C105.57017188 -0.14530495 109.63915637 -0.13120332 113.70887756 -0.11402893 C115.51618347 -0.12853088 115.51618347 -0.12853088 117.36000061 -0.14332581 C123.66530589 -0.08754838 127.68100034 0.05650601 132.4278717 4.38768005 C136.48417569 9.61027863 136.20184714 15.04108148 135.4278717 21.38768005 C133.24027367 26.00594257 130.92699743 28.10479822 126.4278717 30.38768005 C123.76789951 30.76799679 123.76789951 30.76799679 120.85574341 30.77536011 C119.19243736 30.79021706 119.19243736 30.79021706 117.49552917 30.80537415 C116.28863434 30.8008725 115.0817395 30.79637085 113.83827209 30.79173279 C112.5597084 30.79859604 111.28114471 30.80545929 109.96383667 30.81253052 C106.4637686 30.83045254 102.96395136 30.82929541 99.46385121 30.82358813 C96.53891622 30.82049478 93.61402931 30.82659037 90.68910116 30.83262688 C83.78728662 30.84666743 76.88559587 30.84511487 69.98377991 30.83372498 C62.87012246 30.8222447 55.75684207 30.83631867 48.64323431 30.86312145 C42.52926294 30.88529291 36.41540979 30.89191258 30.30140108 30.88604504 C26.65260471 30.88267761 23.00405001 30.88507597 19.35528755 30.90229607 C15.28557153 30.92066505 11.21658704 30.90656342 7.14686584 30.88938904 C5.33955994 30.90389099 5.33955994 30.90389099 3.4957428 30.91868591 C-2.80956248 30.86290849 -6.82525693 30.71885409 -11.5721283 26.38768005 C-15.62843228 21.16508148 -15.34610373 15.73427863 -14.5721283 9.38768005 C-11.49275947 2.8867903 -7.15706033 0.01809646 0 0 Z " fill="#000000" transform="translate(195.57212829589844,301.61231994628906)"/>
</svg>
